<?xml version="1.0" encoding="UTF-8" standalone="no"?>
<!-- Created with Inkscape (http://www.inkscape.org/) -->

<svg
   xmlns:dc="http://purl.org/dc/elements/1.1/"
   xmlns:cc="http://creativecommons.org/ns#"
   xmlns:rdf="http://www.w3.org/1999/02/22-rdf-syntax-ns#"
   xmlns:svg="http://www.w3.org/2000/svg"
   xmlns="http://www.w3.org/2000/svg"
   xmlns:sodipodi="http://sodipodi.sourceforge.net/DTD/sodipodi-0.dtd"
   xmlns:inkscape="http://www.inkscape.org/namespaces/inkscape"
   version="1.1"
   id="svg2"
   xml:space="preserve"
   width="695.18799"
   height="272.86932"
   viewBox="0 0 695.18799 272.86932"
   sodipodi:docname="logo_white.svg"
   inkscape:version="0.92.2 (unknown)"><metadata
     id="metadata8"><rdf:RDF><cc:Work
         rdf:about=""><dc:format>image/svg+xml</dc:format><dc:type
           rdf:resource="http://purl.org/dc/dcmitype/StillImage" /><dc:title /></cc:Work></rdf:RDF></metadata><defs
     id="defs6"><clipPath
       clipPathUnits="userSpaceOnUse"
       id="clipPath18"><path
         d="M 0,204.652 H 521.391 V 0 H 0 Z"
         id="path16"
         inkscape:connector-curvature="0" /></clipPath></defs><sodipodi:namedview
     pagecolor="#ffffff"
     bordercolor="#666666"
     borderopacity="1"
     objecttolerance="10"
     gridtolerance="10"
     guidetolerance="10"
     inkscape:pageopacity="0"
     inkscape:pageshadow="2"
     inkscape:window-width="1920"
     inkscape:window-height="1023"
     id="namedview4"
     showgrid="false"
     inkscape:zoom="2.4492844"
     inkscape:cx="387.47792"
     inkscape:cy="118.27431"
     inkscape:window-x="0"
     inkscape:window-y="27"
     inkscape:window-maximized="1"
     inkscape:current-layer="g14" /><g
     id="g10"
     inkscape:groupmode="layer"
     inkscape:label="logo"
     transform="matrix(1.3333333,0,0,-1.3333333,0,272.86933)"><g
       id="g12"><g
         id="g14"
         clip-path="url(#clipPath18)"><g
           id="g20"
           transform="matrix(1.6333851,0,0,1.4634559,422.97822,203.87032)"
           style="fill:none"><path
             d="m 0,0 h -102.719 c -9.909,0 -18.016,-8.107 -18.016,-18.015 v -102.72 c 0,-9.908 8.107,-18.015 18.016,-18.015 H 0 c 9.908,0 18.016,8.107 18.016,18.015 v 102.72 C 18.016,-8.107 9.908,0 0,0"
             style="fill:none;fill-opacity:1;fill-rule:nonzero;stroke:none"
             id="path22"
             inkscape:connector-curvature="0" /></g><g
           id="g24"
           transform="matrix(1.6333851,0,0,1.4634559,452.40462,30.964767)"><path
             d="m 0,0 v 55.816 l -38.789,35.363 -7.175,2.14 -12.954,0.749 h -33.296 l -6.531,-5.246 -3.104,-19.806 1.82,-8.659 62.63,-0.441 1.285,-13.061 -1.071,-24.41 -5.46,-6.852 -7.494,-1.606 -13.169,0.429 -0.642,-0.643 0.321,-3.426 h 1.82 c 0.321,0 2.986,-0.214 2.986,-0.214 l 0.761,-1.349 -0.761,-1.434 h -3.521 l -1.071,-2.531 -2.141,-1.645 -3.339,-1.276 c 0,0 -0.943,-3.648 -3.906,-7.503 l -10.313,1.071 -10.492,7.494 -9.722,2.694 -7.562,-5.751 23.93,-20.504 h 66.359 C -9.271,-20.601 0,-11.331 0,0"
             style="fill:none;fill-opacity:1;fill-rule:nonzero;stroke:none"
             id="path26"
             inkscape:connector-curvature="0" /></g><g
           id="g28"
           transform="matrix(1.6333851,0,0,1.4634559,326.22351,19.604984)"><path
             d="m 0,0 c -3.301,0 -7.808,1.321 -13.45,5.971 -4.708,3.88 -9.205,5.463 -13.004,4.577 -2.678,-0.625 -4.112,-2.241 -4.126,-2.257 -0.672,-0.791 -1.857,-0.886 -2.648,-0.215 -0.79,0.672 -0.886,1.857 -0.214,2.648 0.083,0.098 8.455,9.623 22.381,-1.854 5.512,-4.543 10.675,-6.161 14.166,-4.438 2.115,1.044 3.373,3.283 3.283,5.844 -0.036,1.037 0.775,1.907 1.811,1.943 1.036,0.037 1.907,-0.774 1.943,-1.811 C 10.285,6.35 8.225,2.769 4.767,1.063 3.663,0.519 2.068,0 0,0"
             style="fill:#ffffff;fill-opacity:1;fill-rule:nonzero;stroke:none"
             id="path30"
             inkscape:connector-curvature="0" /></g><g
           id="g32"
           transform="matrix(1.6333851,0,0,1.4634559,339.72638,180.96695)"><path
             d="M 0,0 C 2.012,0 3.645,-1.631 3.645,-3.645 3.645,-5.657 2.012,-7.29 0,-7.29 c -2.014,0 -3.645,1.633 -3.645,3.645 C -3.645,-1.631 -2.014,0 0,0 m 0,2.811 c 3.567,0 6.456,-2.889 6.456,-6.456 0,-3.564 -2.889,-6.456 -6.456,-6.456 -3.567,0 -6.459,2.892 -6.459,6.456 0,3.567 2.892,6.456 6.459,6.456"
             style="fill:#ffffff;fill-opacity:1;fill-rule:evenodd;stroke:none"
             id="path34"
             inkscape:connector-curvature="0" /></g><g
           id="g36"
           transform="matrix(1.6333851,0,0,1.4634559,310.53991,58.813161)"><path
             d="m 0,0 h 35.497 c 5.545,0 10.052,4.349 10.052,9.693 V 37.104 H -9.633 V 9.693 C -9.633,4.259 -5.403,0 0,0"
             style="fill:#ffffff;fill-opacity:1;fill-rule:nonzero;stroke:none"
             id="path38"
             inkscape:connector-curvature="0" /></g><path
           d="m 343.62331,47.178978 h -7.49887 v 2.442509 h 7.49887 z m 11.83387,-2.442506 c 0.48022,0 0.86733,-0.485868 0.86733,-0.916124 0,-0.425866 -0.38711,-0.916123 -0.86733,-0.916123 h -31.33485 c -0.48022,0 -0.86733,0.490257 -0.86733,0.916123 0,0.430256 0.38711,0.916124 0.86733,0.916124 z m -11.83387,-6.718727 h -7.49887 v 2.442508 h 7.49887 z m 52.49209,94.171935 v 16.38046 c 0,12.67644 -11.66726,23.21333 -25.82709,23.21333 h -61.55737 c -13.92298,0 -25.10023,-10.53689 -25.10023,-23.21333 v -22.20941 -9.54905 h 2.57748 103.77222 v -5.1104 -39.50306 c 0,-9.540268 -8.91665,-17.078529 -19.6921,-17.078529 h -61.55737 c -10.54024,0 -18.96524,7.538261 -18.96524,17.078529 v 34.12048 h -6.13499 V 72.19822 c 0,-12.571085 11.17725,-22.57527 25.10023,-22.57527 h 19.21187 v -2.443972 h -3.63592 c -2.12829,0 -3.85805,-1.447356 -3.85805,-3.35863 0,-1.902492 1.72976,-3.360095 3.85805,-3.360095 h 3.63592 v -3.357167 c 0,-1.90981 1.72486,-3.361559 3.85315,-3.361559 h 15.84058 c 2.143,0 4.16676,1.438577 4.16676,3.361559 v 3.357167 h 3.33701 c 2.1283,0 3.85805,1.457603 3.85805,3.360095 0,1.911274 -1.72975,3.35863 -3.85805,3.35863 h -3.33701 v 2.443972 h 18.48501 c 14.15983,0 25.82709,10.004185 25.82709,22.57527 v 39.50306 10.60714 H 392.55789 289.7657 v 4.05231 22.20941 c 0,9.64563 8.425,17.71658 18.96524,17.71658 h 61.55737 c 10.59414,0 19.6921,-8.23486 19.6921,-17.71658 v -16.38046 z"
           style="fill:#ffffff;fill-opacity:1;fill-rule:nonzero;stroke:none;stroke-width:1.54608762"
           id="path40"
           inkscape:connector-curvature="0" /></g></g></g></svg>